<?xml version="1.0" encoding="utf-8"?>
<!-- Generator: Adobe Illustrator 24.1.2, SVG Export Plug-In . SVG Version: 6.00 Build 0)  -->
<svg version="1.1" id="Layer_1" xmlns="http://www.w3.org/2000/svg" xmlns:xlink="http://www.w3.org/1999/xlink" x="0px" y="0px"
	 viewBox="0 0 262.57 89.24" style="enable-background:new 0 0 262.57 89.24;" xml:space="preserve">
<style type="text/css">
	.st0{fill:#D13328;}
	.st1{fill:#02262B;}
	.st2{fill:#FFFFFF;}
	.st3{fill:#01262B;}
</style>
<g>
	<g>
		<path class="st0" d="M11.5,13.43l2.17-13.06h4.41c1.02,0,1.83,0.18,2.42,0.55s0.99,0.86,1.2,1.49c0.21,0.63,0.25,1.32,0.12,2.1
			c-0.13,0.77-0.4,1.46-0.82,2.09s-0.99,1.13-1.7,1.51c-0.71,0.37-1.57,0.56-2.58,0.56h-3.16l0.23-1.4h3.11
			c0.7,0,1.28-0.12,1.75-0.36c0.47-0.24,0.83-0.57,1.1-0.99c0.26-0.42,0.44-0.88,0.52-1.4c0.09-0.53,0.06-1-0.06-1.41
			c-0.13-0.41-0.38-0.73-0.77-0.97c-0.39-0.24-0.94-0.35-1.64-0.35h-2.78l-1.94,11.66H11.5z"/>
		<path class="st0" d="M34.96,7c-0.23,1.36-0.67,2.54-1.32,3.52c-0.65,0.99-1.45,1.75-2.39,2.28c-0.94,0.53-1.96,0.8-3.05,0.8
			c-1.13,0-2.09-0.28-2.89-0.83c-0.79-0.55-1.36-1.34-1.7-2.36c-0.34-1.02-0.39-2.22-0.16-3.62c0.23-1.36,0.67-2.54,1.32-3.52
			c0.65-0.99,1.45-1.75,2.39-2.28c0.94-0.53,1.97-0.8,3.07-0.8c1.12,0,2.08,0.28,2.87,0.83c0.79,0.55,1.35,1.34,1.69,2.36
			C35.14,4.4,35.19,5.61,34.96,7z M33.46,6.8c0.19-1.11,0.16-2.05-0.08-2.81c-0.24-0.76-0.64-1.34-1.2-1.73
			c-0.56-0.39-1.23-0.59-2-0.59c-0.81,0-1.57,0.21-2.3,0.61c-0.72,0.41-1.34,1.01-1.85,1.81C25.51,4.89,25.15,5.86,24.97,7
			c-0.19,1.11-0.16,2.05,0.08,2.81s0.64,1.34,1.21,1.73c0.56,0.39,1.23,0.59,2,0.59c0.81,0,1.57-0.2,2.29-0.61s1.34-1.01,1.86-1.8
			C32.92,8.92,33.27,7.95,33.46,6.8z"/>
		<path class="st0" d="M38.92,13.43l-1.4-13.06h1.61l0.97,10.64h0.13l4.54-10.64h1.78l1.02,10.64h0.13l4.49-10.64h1.61l-5.74,13.06
			h-1.63l-1.15-10.4h-0.1l-4.62,10.4H38.92z"/>
		<path class="st0" d="M53.58,13.43l2.17-13.06h7.88l-0.23,1.4h-6.3l-0.74,4.41h5.89l-0.23,1.4h-5.89l-0.74,4.44h6.4l-0.23,1.4
			H53.58z"/>
		<path class="st0" d="M64.32,13.43l2.17-13.06h4.41c1.02,0,1.83,0.17,2.43,0.52c0.6,0.34,1,0.82,1.22,1.42
			c0.22,0.6,0.26,1.29,0.13,2.06c-0.13,0.77-0.4,1.45-0.81,2.04c-0.42,0.6-0.98,1.06-1.68,1.4c-0.71,0.34-1.57,0.51-2.58,0.51h-3.57
			l0.26-1.43h3.52c0.7,0,1.28-0.1,1.73-0.31s0.82-0.5,1.07-0.87c0.25-0.38,0.43-0.83,0.51-1.35c0.13-0.79,0.01-1.42-0.36-1.89
			c-0.37-0.47-1.08-0.71-2.14-0.71h-2.78L65.9,13.43H64.32z M71.43,7.56l2.24,5.87h-1.84l-2.19-5.87H71.43z"/>
		<path class="st0" d="M75.79,13.43l2.17-13.06h7.88l-0.23,1.4h-6.3l-0.74,4.41h5.89l-0.23,1.4h-5.89l-0.74,4.44h6.4l-0.23,1.4
			H75.79z"/>
		<path class="st0" d="M90.61,13.43h-4.08L88.7,0.37h4.16c1.27,0,2.31,0.27,3.13,0.8s1.4,1.29,1.72,2.28s0.37,2.16,0.14,3.53
			c-0.22,1.34-0.65,2.5-1.29,3.46c-0.63,0.96-1.46,1.7-2.46,2.22C93.1,13.17,91.94,13.43,90.61,13.43z M88.35,12.03h2.31
			c1.08,0,2.01-0.21,2.8-0.64c0.78-0.43,1.42-1.03,1.9-1.82c0.48-0.79,0.81-1.72,0.99-2.8c0.18-1.04,0.16-1.93-0.05-2.67
			c-0.21-0.75-0.62-1.32-1.23-1.72c-0.61-0.4-1.42-0.6-2.45-0.6h-2.58L88.35,12.03z"/>
		<path class="st0" d="M104.48,13.43l2.17-13.06h4.57c0.91,0,1.63,0.16,2.17,0.47c0.54,0.31,0.91,0.73,1.11,1.26
			c0.2,0.52,0.24,1.11,0.13,1.74c-0.14,0.84-0.46,1.47-0.95,1.88c-0.49,0.41-1.03,0.69-1.6,0.85l-0.02,0.13
			c0.39,0.03,0.77,0.17,1.13,0.42c0.36,0.25,0.64,0.62,0.84,1.1c0.2,0.48,0.24,1.06,0.13,1.75c-0.11,0.65-0.36,1.24-0.75,1.77
			c-0.39,0.52-0.93,0.94-1.62,1.24c-0.69,0.31-1.55,0.46-2.58,0.46H104.48z M106.29,12.03h3.14c1.03,0,1.8-0.2,2.3-0.6
			c0.5-0.4,0.81-0.89,0.91-1.46c0.07-0.44,0.02-0.85-0.14-1.23c-0.16-0.38-0.43-0.68-0.81-0.91c-0.38-0.23-0.85-0.34-1.42-0.34
			h-3.21L106.29,12.03z M107.29,6.11h2.93c0.48,0,0.92-0.09,1.34-0.28c0.42-0.19,0.76-0.45,1.04-0.79c0.28-0.34,0.46-0.74,0.52-1.2
			c0.1-0.57-0.01-1.06-0.35-1.46c-0.33-0.4-0.93-0.6-1.8-0.6H108L107.29,6.11z"/>
		<path class="st0" d="M117.21,0.37h1.81l2.63,6.1h0.15l4.62-6.1h1.81l-5.99,7.68l-0.89,5.38h-1.58l0.89-5.38L117.21,0.37z"/>
	</g>
	<polygon class="st0" points="9.18,21.68 0,65.5 174.87,65.5 184.04,21.68 	"/>
	<g>
		<polygon class="st1" points="203.41,25.86 206.01,13.43 129.7,13.43 117.18,73.21 180.99,73.21 177.47,89.24 238.6,89.24 
			252.08,25.86 		"/>
		<path class="st2" d="M143.19,65.58c-1.73,0-3.36-0.28-4.9-0.85c-1.54-0.57-2.88-1.4-4.02-2.51s-2.05-2.46-2.71-4.08
			c-0.66-1.62-1-3.47-1-5.57c0-2.86,0.4-5.48,1.2-7.83s1.91-4.37,3.33-6.06c1.42-1.68,3.13-2.98,5.12-3.91
			c1.99-0.92,4.17-1.38,6.53-1.38c1.6,0,3.11,0.28,4.54,0.84c1.43,0.56,2.69,1.37,3.76,2.44c1.08,1.07,1.93,2.38,2.57,3.94
			c0.63,1.56,0.95,3.35,0.95,5.36c0,0.31-0.01,0.67-0.03,1.08c-0.02,0.41-0.05,0.84-0.09,1.27c-0.04,0.43-0.08,0.86-0.11,1.27
			c-0.04,0.41-0.09,0.76-0.14,1.05h-22.41c-0.02,0.27-0.03,0.53-0.04,0.78c-0.01,0.25-0.01,0.51-0.01,0.78
			c0,1.6,0.23,2.95,0.69,4.08s1.06,2.04,1.8,2.75c0.74,0.71,1.57,1.22,2.49,1.54c0.92,0.32,1.85,0.48,2.8,0.48
			c2.06,0,3.71-0.36,4.96-1.07c1.25-0.71,2.2-1.67,2.85-2.88h5.28c-0.33,1.19-0.87,2.31-1.62,3.35c-0.75,1.04-1.7,1.94-2.84,2.7
			c-1.14,0.76-2.47,1.36-3.98,1.79C146.65,65.36,144.99,65.58,143.19,65.58z M153.31,46.63c0.02-0.1,0.03-0.27,0.04-0.53
			c0.01-0.26,0.01-0.51,0.01-0.76c0-1.02-0.15-1.98-0.45-2.9c-0.3-0.91-0.74-1.72-1.34-2.41c-0.6-0.69-1.34-1.24-2.22-1.64
			c-0.89-0.4-1.91-0.61-3.09-0.61c-1.19,0-2.31,0.21-3.35,0.63c-1.04,0.42-1.98,1.02-2.83,1.8c-0.85,0.78-1.58,1.71-2.19,2.8
			c-0.61,1.09-1.11,2.29-1.47,3.62L153.31,46.63L153.31,46.63z"/>
		<path class="st2" d="M172.71,65.58c-1.56,0-3.02-0.29-4.38-0.88c-1.37-0.59-2.56-1.43-3.59-2.52c-1.03-1.1-1.84-2.42-2.44-3.98
			c-0.6-1.56-0.89-3.3-0.89-5.22c0-1.86,0.19-3.65,0.56-5.35c0.38-1.7,0.91-3.28,1.6-4.73c0.69-1.45,1.52-2.76,2.49-3.94
			c0.97-1.17,2.05-2.17,3.23-3c1.18-0.83,2.46-1.46,3.84-1.9c1.37-0.44,2.81-0.66,4.31-0.66c1.12,0,2.18,0.15,3.19,0.46
			c1.01,0.31,1.92,0.73,2.74,1.28c0.82,0.55,1.52,1.21,2.11,1.99c0.59,0.78,1.01,1.63,1.28,2.55h0.46l3.84-18.08h5.05l-9.23,43.43
			h-4.79l0.89-4.24h-0.46c-1.13,1.48-2.56,2.65-4.27,3.5C176.53,65.15,174.69,65.58,172.71,65.58z M174.29,61.11
			c1.62,0,3.11-0.38,4.48-1.14c1.37-0.76,2.57-1.8,3.59-3.11c1.02-1.32,1.82-2.86,2.39-4.64c0.58-1.78,0.87-3.7,0.87-5.75
			c0-1.33-0.18-2.52-0.55-3.58c-0.37-1.06-0.89-1.96-1.56-2.7c-0.67-0.74-1.49-1.31-2.45-1.72c-0.96-0.41-2.05-0.61-3.26-0.61
			c-1.6,0-3.08,0.36-4.44,1.07c-1.37,0.71-2.55,1.7-3.55,2.97c-1,1.27-1.79,2.78-2.36,4.54s-0.87,3.69-0.87,5.78
			c0,1.31,0.19,2.51,0.56,3.6c0.38,1.1,0.9,2.03,1.57,2.81c0.67,0.78,1.48,1.38,2.42,1.82C172.09,60.89,173.14,61.11,174.29,61.11z"
			/>
		<g>
			<polygon class="st2" points="241.36,34.03 230.1,34.03 217.82,49.23 217.22,49.23 210.72,34.03 199.34,34.03 209.1,56.11 
				188.03,81.07 199.14,81.07 212.66,65.04 213.57,65.04 220.87,81.07 232.05,81.07 221.24,57.22 			"/>
		</g>
	</g>
	<g>
		<path class="st2" d="M24.39,57.77c-7.3,0-11.8-5.47-10.31-14.43c1.46-8.71,7.47-13.94,14.53-13.94c7.24,0,11.74,5.49,10.26,14.45
			C37.4,52.57,31.42,57.77,24.39,57.77z M28.44,33.21c-4.89,0-9.19,3.8-10.3,10.65c-1.12,6.61,1.78,10.11,6.39,10.11
			c4.89,0,9.17-3.78,10.29-10.63C35.92,36.74,33.06,33.21,28.44,33.21z"/>
		<path class="st2" d="M46.03,29.78h9.84c6.4,0,8.91,3.84,8.08,8.94c-0.85,5.08-4.65,8.97-11.06,8.97h-5.66l-1.62,9.71h-4.17
			L46.03,29.78z M53.08,44.15c4.07,0,6.16-2.32,6.66-5.43c0.51-3.14-0.78-5.37-4.89-5.37h-5.23l-1.79,10.8H53.08z"/>
		<path class="st2" d="M69.9,29.78h17.45l-0.75,3.59H73.47l-1.4,8.41h11.41l-0.73,3.57H71.48l-1.4,8.45h12.71l-0.76,3.59H65.31
			L69.9,29.78z"/>
		<path class="st2" d="M110.14,57.39h-3.83l-9.92-20.25h-0.24l-4.13,20.25h-4.17l5.83-27.61h3.86l9.84,20.28h0.26l4.21-20.28h4.13
			L110.14,57.39z"/>
	</g>
	<g>
		<g>
			<g>
				<g>
					<path class="st3" d="M258.59,33.75c-0.55,0-1.07-0.1-1.55-0.31c-0.48-0.21-0.91-0.49-1.27-0.86c-0.37-0.37-0.65-0.79-0.86-1.27
						s-0.31-1-0.31-1.55c0-0.55,0.1-1.07,0.31-1.55c0.21-0.48,0.49-0.91,0.86-1.27s0.79-0.65,1.27-0.86c0.48-0.21,1-0.31,1.55-0.31
						c0.55,0,1.07,0.1,1.55,0.31c0.48,0.21,0.91,0.49,1.27,0.86c0.37,0.37,0.65,0.79,0.86,1.27c0.21,0.48,0.31,1,0.31,1.55
						c0,0.55-0.1,1.07-0.31,1.55s-0.49,0.91-0.86,1.27c-0.37,0.37-0.79,0.65-1.27,0.86C259.65,33.65,259.14,33.75,258.59,33.75z
						 M258.59,33.01c0.6,0,1.14-0.15,1.63-0.44c0.49-0.29,0.88-0.68,1.17-1.17c0.29-0.49,0.44-1.03,0.44-1.63
						c0-0.6-0.15-1.14-0.44-1.63s-0.68-0.88-1.17-1.17c-0.49-0.29-1.03-0.44-1.63-0.44c-0.6,0-1.14,0.15-1.63,0.44
						c-0.49,0.29-0.88,0.68-1.17,1.17c-0.29,0.49-0.44,1.03-0.44,1.63c0,0.6,0.15,1.14,0.44,1.63c0.29,0.49,0.68,0.88,1.17,1.17
						C257.44,32.87,257.99,33.01,258.59,33.01z M257.23,31.56v-3.68H259c0.19,0,0.37,0.04,0.54,0.13c0.17,0.09,0.32,0.22,0.43,0.39
						c0.11,0.17,0.17,0.38,0.17,0.63c0,0.25-0.06,0.46-0.18,0.65c-0.12,0.18-0.27,0.32-0.45,0.42c-0.18,0.1-0.37,0.14-0.56,0.14
						h-1.37v-0.5h1.2c0.17,0,0.32-0.06,0.46-0.18c0.13-0.12,0.2-0.29,0.2-0.52c0-0.23-0.07-0.4-0.2-0.5
						c-0.13-0.1-0.28-0.15-0.44-0.15h-0.93v3.18H257.23z M259.38,29.85l0.92,1.71h-0.72l-0.89-1.71H259.38z"/>
				</g>
			</g>
		</g>
	</g>
</g>
</svg>
